<?xml version="1.0" encoding="UTF-8" standalone="no" ?>
<!DOCTYPE svg PUBLIC "-//W3C//DTD SVG 1.1//EN" "http://www.w3.org/Graphics/SVG/1.1/DTD/svg11.dtd">
<svg xmlns="http://www.w3.org/2000/svg" xmlns:xlink="http://www.w3.org/1999/xlink" version="1.1" width="1080" height="1080" viewBox="0 0 1080 1080" xml:space="preserve">
<desc>Created with Fabric.js 5.2.4</desc>
<defs>
</defs>
<g transform="matrix(1 0 0 1 540 540)" id="16f6e144-1320-4bb1-84d1-ce9a9befb1c9"  >
</g>
<g transform="matrix(1 0 0 1 540 540)" id="fe4d5f56-09a7-4b67-9d22-271471920085"  >
<rect style="stroke: none; stroke-width: 1; stroke-dasharray: none; stroke-linecap: butt; stroke-dashoffset: 0; stroke-linejoin: miter; stroke-miterlimit: 4; fill: rgb(255,255,255); fill-rule: nonzero; opacity: 1; visibility: hidden;" vector-effect="non-scaling-stroke"  x="-540" y="-540" rx="0" ry="0" width="1080" height="1080" />
</g>
<g transform="matrix(1 0 0 1 412.9 470.04)"  >
<path style="stroke: none; stroke-width: 1; stroke-dasharray: none; stroke-linecap: butt; stroke-dashoffset: 0; stroke-linejoin: miter; stroke-miterlimit: 4; fill: rgb(7,36,59); fill-rule: nonzero; opacity: 1;" vector-effect="non-scaling-stroke"  transform=" translate(-145.62, -212)" d="M 0 0 C 27.39 0 54.78 0 83 0 C 83 44.22 83 88.44 83 134 C 93.56 133.67 104.12 133.34 115 133 C 123.46508945 132.89470488 131.92556374 132.81207947 140.390625 132.796875 C 141.49473473 132.79404762 142.59884445 132.79122025 143.73641205 132.78830719 C 149.54970006 132.77357765 155.36296482 132.76417759 161.17626953 132.75976562 C 167.09909873 132.75423439 173.02170352 132.73003337 178.94446182 132.70179367 C 183.58610655 132.68303066 188.22769771 132.67795506 192.86937714 132.67642975 C 195.05223606 132.67344741 197.23509508 132.66557349 199.41791534 132.65224457 C 224.67820858 132.50863021 247.46293381 134.25103906 266.96875 151.9765625 C 284.68979974 169.62945436 291.1686157 189.28256443 291.24981284 213.84351766 C 291.24880424 216.87790315 291.23802128 219.91216861 291.22705078 222.9465332 C 291.22648578 225.14546707 291.22680496 227.34440131 291.22793579 229.54333496 C 291.22850684 235.47835979 291.21679277 241.41330288 291.20278788 247.3483088 C 291.19023907 253.56359706 291.18910675 259.77888743 291.18673706 265.9941864 C 291.18053446 277.74833097 291.16414019 289.5024381 291.14403808 301.25656623 C 291.12820953 310.65045285 291.11729095 320.04433549 291.10986328 329.43823242 C 291.10933783 330.10091703 291.10881239 330.76360164 291.10827102 331.4463676 C 291.10566069 334.77129719 291.10313786 338.09622684 291.10064721 341.42115653 C 291.07977285 368.94746319 291.04311189 396.47371856 291 424 C 263.94 424 236.88 424 209 424 C 208.95101562 413.33429688 208.90203125 402.66859375 208.8515625 391.6796875 C 208.81616138 384.90754415 208.78027188 378.13540916 208.7421875 371.36328125 C 208.68187902 360.62322935 208.62351805 349.88319309 208.578125 339.14306641 C 208.5450491 331.31938991 208.50513336 323.49578234 208.45720994 315.6721822 C 208.43209899 311.53466131 208.41027345 307.39718523 208.39665604 303.25960922 C 208.38369431 299.35423377 208.36149278 295.44901323 208.33261681 291.54372406 C 208.32364995 290.12089605 208.31787677 288.69804318 208.31578636 287.27518845 C 208.2810377 267.19106837 205.03328427 249.42156913 193 233 C 192.54109375 232.34644531 192.0821875 231.69289062 191.609375 231.01953125 C 183.98173398 221.09044682 169.78304485 214.54458159 157.65234375 212.28515625 C 138.92968109 210.27226321 121.26635958 213.79706562 106.1875 225.8125 C 89.37479788 241.58481213 83.70651762 262.95093789 82.87572479 285.35069656 C 82.6622925 294.36515569 82.62685104 303.38104615 82.59528303 312.39762807 C 82.57946846 316.33205751 82.55273857 320.26641387 82.5272522 324.20079041 C 82.48078432 331.6233831 82.44388728 339.04599004 82.41057932 346.46865219 C 82.36491558 356.51847572 82.30416164 366.5682079 82.24433136 376.61795521 C 82.15069459 392.41192395 82.07695538 408.20592075 82 424 C 54.94 424 27.88 424 0 424 C 0 284.08 0 144.16 0 0 Z" stroke-linecap="round" />
</g>
<g transform="matrix(1 0 0 1 728.96 536.59)"  >
<path style="stroke: none; stroke-width: 1; stroke-dasharray: none; stroke-linecap: butt; stroke-dashoffset: 0; stroke-linejoin: miter; stroke-miterlimit: 4; fill: rgb(7,36,59); fill-rule: nonzero; opacity: 1;" vector-effect="non-scaling-stroke"  transform=" translate(-145.68, -145.54)" d="M 0 0 C 27.39 0 54.78 0 83 0 C 83.01417969 10.72886719 83.02835937 21.45773438 83.04296875 32.51171875 C 83.06304562 39.34312257 83.08437999 46.17448491 83.11132812 53.00585938 C 83.15379104 63.82871522 83.1913868 74.65141779 83.19555664 85.47436523 C 83.19861857 93.36007822 83.21940462 101.24552288 83.26052457 109.13113242 C 83.28165648 113.29749304 83.29455909 117.46347414 83.28615379 121.62988853 C 82.95755022 159.22900616 82.95755022 159.22900616 100.43359375 191.52734375 C 109.56539028 200.11259885 121.46766395 206.58505883 134 208 C 134.88171875 208.13148438 135.7634375 208.26296875 136.671875 208.3984375 C 151.2038515 210.24572265 165.98553399 205.09071328 178 197 C 193.36226248 184.98158844 205.28103263 168.646599 208 149 C 208.29252744 144.06323504 208.31161319 139.13082878 208.31884766 134.18701172 C 208.32816343 132.71756957 208.33833451 131.24813263 208.34928894 129.77870178 C 208.37641728 125.81868743 208.39168697 121.85870831 208.40471697 117.89862585 C 208.42042325 113.74928119 208.44718928 109.60000767 208.4727478 105.45071411 C 208.51940355 97.60643731 208.55621127 89.76214693 208.58942068 81.91780293 C 208.63491008 71.30855381 208.69573439 60.6993931 208.75566864 50.09021759 C 208.84959135 33.39352287 208.92313079 16.69680212 209 0 C 236.06 0 263.12 0 291 0 C 291.0678645 27.70437717 291.12306749 55.40868646 291.15543652 83.1131258 C 291.17086916 95.978361 291.19188944 108.84354068 291.22631836 121.70874023 C 291.25633139 132.92923831 291.27560115 144.14969614 291.28226548 155.37023324 C 291.28615765 161.30487471 291.29522884 167.23940112 291.31719017 173.17400551 C 291.33774384 178.77426056 291.34379612 184.37435452 291.33932304 189.97464371 C 291.34013988 192.01623221 291.3459919 194.05782682 291.35761642 196.0993824 C 291.49421245 221.35480777 288.9961601 245.64611442 270.75 264.75 C 265.59836801 269.69725808 260.22667352 273.5295452 254 277 C 253.2471875 277.43699219 252.494375 277.87398438 251.71875 278.32421875 C 233.68524164 288.11295531 213.69374265 291.2376505 193.42895508 291.08398438 C 191.56572837 291.0769109 191.56572837 291.0769109 189.66486073 291.06969452 C 186.18940527 291.05627011 182.71402761 291.03540048 179.23861742 291.01338577 C 175.3520006 290.99014582 171.46535206 290.97402232 167.57870483 290.95678711 C 157.78447931 290.91177322 147.99033172 290.85516597 138.19617462 290.79736328 C 133.79537785 290.77154879 129.39457601 290.74665876 124.99377441 290.72167969 C 112.22501109 290.64868886 99.456256 290.57426161 86.6875 290.5 C 58.080625 290.335 29.47375 290.17 0 290 C 0 194.3 0 98.6 0 0 Z" stroke-linecap="round" />
</g>
<g transform="matrix(1 0 0 1 624.27 298.54)"  >
<path style="stroke: none; stroke-width: 1; stroke-dasharray: none; stroke-linecap: butt; stroke-dashoffset: 0; stroke-linejoin: miter; stroke-miterlimit: 4; fill: rgb(7,36,59); fill-rule: nonzero; opacity: 1;" vector-effect="non-scaling-stroke"  transform=" translate(-41, -40.5)" d="M 0 0 C 27.06 0 54.12 0 82 0 C 82 26.73 82 53.46 82 81 C 54.94 81 27.88 81 0 81 C 0 54.27 0 27.54 0 0 Z" stroke-linecap="round" />
</g>
</svg>